<svg id="Layer_1" data-name="Layer 1" xmlns="http://www.w3.org/2000/svg" viewBox="0 0 60 60"><defs><style>.cls-1{fill:#2d2d2d;}</style></defs><title>Login</title><path class="cls-1" d="M1204.17,648a26.57,26.57,0,0,1,2.69.5c6.38,1.81,10.45,5.94,11.73,12.44,1.19,6-.76,11.11-5.36,15.18l-.67.56,1,.39a2.33,2.33,0,0,1,1.49,3,2.35,2.35,0,0,1-3,1.49c-1.86-.49-3.71-1.06-5.61-1.38a23.33,23.33,0,0,0-10.14.61A25.89,25.89,0,0,0,1177.82,700a2.46,2.46,0,0,0,2.56,3.27c2.66,0,5.31,0,8,0a2.32,2.32,0,0,1,2.3,1.66,2.36,2.36,0,0,1-.9,2.59,7.82,7.82,0,0,1-.81.43h-9.73a1.45,1.45,0,0,0-.26-.11,6.82,6.82,0,0,1-5.1-3.7,17.49,17.49,0,0,1-.85-2.4V700c.32-1.2.57-2.42,1-3.6a30.26,30.26,0,0,1,16.61-18.6c.91-.42,1.87-.76,2.81-1.14,0-.06-.05-.1-.08-.12l-.49-.42c-4.62-4.07-6.6-9.18-5.41-15.22,1.29-6.49,5.36-10.62,11.74-12.43a26.57,26.57,0,0,1,2.69-.5Zm-1.14,4.69A11.25,11.25,0,1,0,1214.25,664,11.29,11.29,0,0,0,1203,652.69Z" transform="translate(-1173 -648)"/><path class="cls-1" d="M1217.3,708a21.05,21.05,0,0,1-2.88-1.21,6.88,6.88,0,0,1-2.73-4.23c-.16-.5-.29-1-.41-1.53a2.33,2.33,0,0,1,4.48-1.26c.26.76.46,1.53.72,2.29a1.68,1.68,0,0,0,1.77,1.25c2.34,0,4.69,0,7,0a1.67,1.67,0,0,0,1.71-1.08,13.39,13.39,0,0,0,1.18-7.47,34.82,34.82,0,0,0-1.26-4.43,1.43,1.43,0,0,0-1.47-1q-3.66,0-7.32,0a1.53,1.53,0,0,0-1.55,1.12c-.2.63-.42,1.25-.61,1.89a2.47,2.47,0,0,1-2.82,2.13c-5,0-10.08,0-15.11,0a1.26,1.26,0,0,0-1,.41c-.44.45-.94.82-1.57,1.35.76.69,1.33,1.24,1.94,1.75a1,1,0,0,0,.6.13h6.09a2.28,2.28,0,0,1,2.11,1.24,2.24,2.24,0,0,1-.08,2.34,2.18,2.18,0,0,1-1.9,1.09c-2.6,0-5.19,0-7.79,0a2.28,2.28,0,0,1-1.66-.77c-1.32-1.35-2.66-2.69-4-4.06a2.28,2.28,0,0,1,0-3.35c1.29-1.36,2.6-2.69,3.91-4a2.64,2.64,0,0,1,2-.78c4.82,0,9.64,0,14.47,0a.72.72,0,0,0,.82-.58,6.25,6.25,0,0,1,6.5-4.59h6.62a6.37,6.37,0,0,1,6.26,4.23,19.73,19.73,0,0,1,1.48,5.75,2.07,2.07,0,0,0,.1.33v2.7a1.76,1.76,0,0,0-.09.2c-.33,1.5-.57,3-1,4.5a7.7,7.7,0,0,1-2.77,4.42,8.26,8.26,0,0,1-3,1.19Z" transform="translate(-1173 -648)"/><path class="cls-1" d="M1225.85,696.27a2.34,2.34,0,1,1-2.37-2.33A2.36,2.36,0,0,1,1225.85,696.27Z" transform="translate(-1173 -648)"/></svg>