<svg xmlns="http://www.w3.org/2000/svg" viewBox="0 0 500 368.76"><defs><style>.cls-1{fill:#ebebeb;}.cls-2{fill:#f5f5f5;}.cls-3{fill:#fafafa;}.cls-4{fill:#f0f0f0;}.cls-5{fill:#e6e6e6;}.cls-6{fill:#e0e0e0;}.cls-25,.cls-26,.cls-7{opacity:0.3;}.cls-8{fill:#407bff;}.cls-10,.cls-13,.cls-19,.cls-20,.cls-21,.cls-23,.cls-26,.cls-29,.cls-9{fill:#fff;}.cls-11,.cls-9{opacity:0.7;}.cls-12,.cls-13{opacity:0.9;}.cls-14{fill:#eec1bb;}.cls-15{opacity:0.1;}.cls-16,.cls-30{fill:#263238;}.cls-17{fill:#d4827d;}.cls-18{fill:#ffc3bd;}.cls-19,.cls-22{opacity:0.5;}.cls-20{opacity:0.8;}.cls-21{opacity:0.6;}.cls-23,.cls-24,.cls-30{opacity:0.2;}.cls-27{fill:#b97964;}.cls-28{fill:#a24e3f;}.cls-29,.cls-31{opacity:0.4;}</style></defs><title>Update_img</title><g id="Background_Complete" data-name="Background Complete"><rect class="cls-1" x="416.78" y="343.54" width="33.12" height="0.25"/><rect class="cls-1" x="322.53" y="346.26" width="8.69" height="0.25"/><rect class="cls-1" x="396.59" y="334.26" width="19.19" height="0.25"/><rect class="cls-1" x="52.46" y="335.94" width="43.19" height="0.25"/><rect class="cls-1" x="104.56" y="335.94" width="6.33" height="0.25"/><rect class="cls-1" x="131.47" y="340.16" width="93.68" height="0.25"/><path class="cls-1" d="M237,337.8H43.92a5.71,5.71,0,0,1-5.71-5.71V60.66A5.71,5.71,0,0,1,43.92,55H237a5.71,5.71,0,0,1,5.71,5.71V332.09A5.71,5.71,0,0,1,237,337.8ZM43.92,55.2a5.47,5.47,0,0,0-5.46,5.46V332.09a5.47,5.47,0,0,0,5.46,5.46H237a5.47,5.47,0,0,0,5.46-5.46V60.66A5.47,5.47,0,0,0,237,55.2Z" transform="translate(0 -54.95)"/><path class="cls-1" d="M453.31,337.8H260.21a5.72,5.72,0,0,1-5.71-5.71V60.66A5.72,5.72,0,0,1,260.21,55h193.1A5.71,5.71,0,0,1,459,60.66V332.09A5.71,5.71,0,0,1,453.31,337.8ZM260.21,55.2a5.47,5.47,0,0,0-5.46,5.46V332.09a5.47,5.47,0,0,0,5.46,5.46h193.1a5.47,5.47,0,0,0,5.46-5.46V60.66a5.47,5.47,0,0,0-5.46-5.46Z" transform="translate(0 -54.95)"/><rect class="cls-1" y="327.45" width="500" height="0.25"/><rect class="cls-1" x="291.96" y="39.72" width="124.79" height="132.89"/><rect class="cls-2" x="299.46" y="47.22" width="109.79" height="117.89"/><polygon class="cls-3" points="342.55 165.11 375.55 165.11 406.53 47.22 373.53 47.22 342.55 165.11"/><polygon class="cls-3" points="358.2 47.22 327.22 165.11 335.22 165.11 366.2 47.22 358.2 47.22"/><polygon class="cls-2" points="418.32 45.97 290.38 45.97 287.68 39.67 421.02 39.67 418.32 45.97"/><polygon class="cls-4" points="418.32 49.62 290.38 49.62 287.68 43.32 421.02 43.32 418.32 49.62"/><polygon class="cls-5" points="418.32 53.27 290.38 53.27 287.68 46.97 421.02 46.97 418.32 53.27"/><polygon class="cls-6" points="418.32 56.92 290.38 56.92 287.68 50.62 421.02 50.62 418.32 56.92"/><rect class="cls-6" x="283.03" y="31.78" width="142.65" height="8.4"/><path class="cls-6" d="M284.49,171.29h0a1.45,1.45,0,0,1-1.45-1.45v-49a1.45,1.45,0,0,1,1.45-1.45h0a1.45,1.45,0,0,1,1.45,1.45v49A1.45,1.45,0,0,1,284.49,171.29Z" transform="translate(0 -54.95)"/><rect class="cls-6" x="283.96" y="38.49" width="1.05" height="29.1"/><rect class="cls-6" x="88.72" y="37.14" width="1.8" height="140.37"/><rect class="cls-6" x="200.77" y="37.14" width="1.8" height="140.37"/><polygon class="cls-2" points="209.63 45.97 81.67 45.97 78.97 39.67 212.32 39.67 209.63 45.97"/><polygon class="cls-2" points="209.63 54.62 81.67 54.62 78.97 48.32 212.32 48.32 209.63 54.62"/><polygon class="cls-2" points="209.63 63.27 81.67 63.27 78.97 56.97 212.32 56.97 209.63 63.27"/><polygon class="cls-2" points="209.63 71.92 81.67 71.92 78.97 65.62 212.32 65.62 209.63 71.92"/><polygon class="cls-2" points="209.63 80.57 81.67 80.57 78.97 74.27 212.32 74.27 209.63 80.57"/><polygon class="cls-2" points="209.63 89.22 81.67 89.22 78.97 82.92 212.32 82.92 209.63 89.22"/><polygon class="cls-2" points="209.63 97.87 81.67 97.87 78.97 91.57 212.32 91.57 209.63 97.87"/><polygon class="cls-2" points="209.63 106.52 81.67 106.52 78.97 100.22 212.32 100.22 209.63 106.52"/><polygon class="cls-2" points="209.63 115.16 81.67 115.16 78.97 108.86 212.32 108.86 209.63 115.16"/><polygon class="cls-2" points="209.63 123.81 81.67 123.81 78.97 117.51 212.32 117.51 209.63 123.81"/><polygon class="cls-2" points="209.63 132.46 81.67 132.46 78.97 126.16 212.32 126.16 209.63 132.46"/><polygon class="cls-2" points="209.63 141.11 81.67 141.11 78.97 134.81 212.32 134.81 209.63 141.11"/><polygon class="cls-2" points="209.63 149.76 81.67 149.76 78.97 143.46 212.32 143.46 209.63 149.76"/><polygon class="cls-2" points="209.63 158.41 81.67 158.41 78.97 152.11 212.32 152.11 209.63 158.41"/><polygon class="cls-2" points="209.63 167.06 81.67 167.06 78.97 160.76 212.32 160.76 209.63 167.06"/><polygon class="cls-2" points="209.63 175.71 81.67 175.71 78.97 169.41 212.32 169.41 209.63 175.71"/><rect class="cls-6" x="78.97" y="175.71" width="133.35" height="3.6"/><rect class="cls-6" x="74.32" y="31.78" width="142.65" height="8.4"/><path class="cls-6" d="M75.79,171.29h0a1.45,1.45,0,0,1-1.45-1.45v-49a1.45,1.45,0,0,1,1.45-1.45h0a1.45,1.45,0,0,1,1.45,1.45v49A1.45,1.45,0,0,1,75.79,171.29Z" transform="translate(0 -54.95)"/><rect class="cls-6" x="75.26" y="38.49" width="1.05" height="29.1"/><path class="cls-1" d="M89.32,322.38c-.12.13.55,1.07-2.19.66-6.75-1-18.5-3.75-21.77-10.69-4.67-9.91,9.81-6.29,9.31-11.36s-17-4.19-18.73-11.62,9.43-3.89,9.58-7.51-12.73-1.38-15.29-9.4,7.18-2.11,6.06-5.45-12-18.41-6.09-20.16S66.12,260.57,70,262.76s7.28-10.44,11.88-5.1-2.7,24,3.16,27.61c4.37,2.7,3.14-4.73,8.9-3.34C101.73,283.81,99.1,311.44,89.32,322.38Z" transform="translate(0 -54.95)"/><path class="cls-2" d="M68.49,281.9a23.39,23.39,0,0,1,5.83,1.19,45.59,45.59,0,0,0-4.15-5.33.5.5,0,0,1,.71-.7,58.8,58.8,0,0,1,8.31,12.06c2.13-12.79-3.23-24-3.29-24.08a.38.38,0,0,1,.68-.33c.06.12,5.77,12.05,3.18,25.47.69,1.31,1.39,2.72,2.07,4.23a94.8,94.8,0,0,1,5.71,16.72,34.44,34.44,0,0,0,4-15.27.37.37,0,0,1,.38-.36.38.38,0,0,1,.37.39,34.57,34.57,0,0,1-4.47,16.29,116.42,116.42,0,0,1,2.53,34.45.5.5,0,0,1-.53.47h-.06a.49.49,0,0,1-.4-.53c1.23-18-1.45-32.41-5.17-43.35a13.74,13.74,0,0,0-8-4.55.39.39,0,0,1-.31-.43.37.37,0,0,1,.42-.32,14.19,14.19,0,0,1,7.28,3.62,83.6,83.6,0,0,0-8.52-17.33,20.77,20.77,0,0,0-6.63-1.56.38.38,0,0,1-.35-.4A.37.37,0,0,1,68.49,281.9Z" transform="translate(0 -54.95)"/><path class="cls-6" d="M98,326.21c5.61.1,15.19-5.11,19-10.17s-6.92-2-5.82-6,14.34-1.05,16.78-6.84-7.1-4.45-6.72-7.41,10.27-2.35,13.44-8.5-5.52-2.7-4.16-5.25,12.27-13.27,7.71-15.5-14.79,8.93-18.21,10.18-4.23-6.47-8.69-2.78-1.12,19.81-6.36,21.94c-3.91,1.59-2.25-5.8-6.75-3.93C90.26,295.22,95.69,326.16,98,326.21Z" transform="translate(0 -54.95)"/><g class="cls-7"><path class="cls-6" d="M98,326.21c5.61.1,15.19-5.11,19-10.17s-6.92-2-5.82-6,14.34-1.05,16.78-6.84-7.1-4.45-6.72-7.41,10.27-2.35,13.44-8.5-5.52-2.7-4.16-5.25,12.27-13.27,7.71-15.5-14.79,8.93-18.21,10.18-4.23-6.47-8.69-2.78-1.12,19.81-6.36,21.94c-3.91,1.59-2.25-5.8-6.75-3.93C90.26,295.22,95.69,326.16,98,326.21Z" transform="translate(0 -54.95)"/></g><path class="cls-2" d="M99.82,319.48a.38.38,0,0,1-.2-.17,29.47,29.47,0,0,1-2.52-15,.38.38,0,1,1,.75.06,30,30,0,0,0,2.27,14.28,115.29,115.29,0,0,1,8.54-18.06c-1-12,5.18-21.9,5.24-22a.37.37,0,1,1,.63.4,39,39,0,0,0-5.19,20.44,104.79,104.79,0,0,1,14.34-19.17.5.5,0,1,1,.7.71,97.48,97.48,0,0,0-10.95,13.84A29.62,29.62,0,0,1,124,292.91a.38.38,0,0,1,.36.39.37.37,0,0,1-.37.36h0a28.81,28.81,0,0,0-11.31,2.21,120,120,0,0,0-6.1,10.49,12.67,12.67,0,0,1,10.46-1.84.38.38,0,0,1,.27.46.37.37,0,0,1-.46.26,12.1,12.1,0,0,0-11.06,2.68A101.71,101.71,0,0,0,95,349a.5.5,0,0,1-.5.48h0A.5.5,0,0,1,94,349,98.68,98.68,0,0,1,99.82,319.48Z" transform="translate(0 -54.95)"/><path class="cls-4" d="M82.19,381c-5.35-10.06-8.87-24.6-8.87-31a17.8,17.8,0,0,1,6.54-13.61h27.41A17.8,17.8,0,0,1,113.81,350c0,6.38-3.52,20.92-8.87,31Z" transform="translate(0 -54.95)"/></g><g id="Shadow"><ellipse id="_Path_" data-name="&lt;Path&gt;" class="cls-2" cx="245.18" cy="357.44" rx="193.89" ry="11.32"/></g><g id="Screen"><path class="cls-8" d="M292.65,119.64h-24a3.5,3.5,0,0,0-3.34,2.73l-.16.75a8.5,8.5,0,0,1-8.14,6.65h-22.8a6.85,6.85,0,0,1-7-6.65l0-.75a2.8,2.8,0,0,0-2.86-2.73h-24a16.13,16.13,0,0,0-15.75,14.48L165.34,354.66a13.06,13.06,0,0,0,13.21,14.49h92.27a16.13,16.13,0,0,0,15.75-14.49l19.3-220.54A13.06,13.06,0,0,0,292.65,119.64Z" transform="translate(0 -54.95)"/><path class="cls-9" d="M292.65,119.64h-24a3.5,3.5,0,0,0-3.34,2.73l-.16.75a8.5,8.5,0,0,1-8.14,6.65h-22.8a6.85,6.85,0,0,1-7-6.65l0-.75a2.8,2.8,0,0,0-2.86-2.73h-24a16.13,16.13,0,0,0-15.75,14.48L165.34,354.66a13.06,13.06,0,0,0,13.21,14.49h92.27a16.13,16.13,0,0,0,15.75-14.49l19.3-220.54A13.06,13.06,0,0,0,292.65,119.64Z" transform="translate(0 -54.95)"/><path class="cls-10" d="M283.3,221.08h-49a2.91,2.91,0,0,1-2.94-3.22l3.69-42.19a3.58,3.58,0,0,1,3.5-3.22h49a2.9,2.9,0,0,1,2.94,3.22l-3.69,42.19A3.59,3.59,0,0,1,283.3,221.08Z" transform="translate(0 -54.95)"/><path class="cls-10" d="M267,353H185a7.21,7.21,0,0,1-7.3-8h0a8.91,8.91,0,0,1,8.7-8h82a7.21,7.21,0,0,1,7.3,8h0A8.9,8.9,0,0,1,267,353Z" transform="translate(0 -54.95)"/><path class="cls-10" d="M273.53,160.85H198.3a4,4,0,0,1-4.09-4.49l.61-7a5,5,0,0,1,4.88-4.48h75.23a4.05,4.05,0,0,1,4.1,4.48l-.62,7A5,5,0,0,1,273.53,160.85Z" transform="translate(0 -54.95)"/><path class="cls-10" d="M288.83,149.12a1.39,1.39,0,0,1-1.36,1.25,1.13,1.13,0,0,1-1.14-1.25,1.38,1.38,0,0,1,1.36-1.24A1.12,1.12,0,0,1,288.83,149.12Z" transform="translate(0 -54.95)"/><path class="cls-10" d="M288.5,152.86a1.38,1.38,0,0,1-1.35,1.25,1.13,1.13,0,0,1-1.14-1.25,1.38,1.38,0,0,1,1.35-1.25A1.13,1.13,0,0,1,288.5,152.86Z" transform="translate(0 -54.95)"/><path class="cls-10" d="M288.18,156.59a1.39,1.39,0,0,1-1.36,1.25,1.13,1.13,0,0,1-1.14-1.25,1.39,1.39,0,0,1,1.36-1.25A1.13,1.13,0,0,1,288.18,156.59Z" transform="translate(0 -54.95)"/><path class="cls-10" d="M277.21,290.68H185.68a2.9,2.9,0,0,1-2.94-3.22L187,239.31a3.58,3.58,0,0,1,3.5-3.22H282a2.9,2.9,0,0,1,2.93,3.22l-4.21,48.15A3.58,3.58,0,0,1,277.21,290.68Z" transform="translate(0 -54.95)"/><path class="cls-10" d="M210.86,300.74h-28.5a.7.7,0,0,1-.71-.78h0a.87.87,0,0,1,.85-.79H211a.7.7,0,0,1,.71.79h0A.87.87,0,0,1,210.86,300.74Z" transform="translate(0 -54.95)"/><path class="cls-10" d="M246.48,300.74H215.89a.7.7,0,0,1-.72-.78h0a.87.87,0,0,1,.85-.79h30.6a.7.7,0,0,1,.71.79h0A.87.87,0,0,1,246.48,300.74Z" transform="translate(0 -54.95)"/><path class="cls-10" d="M201,307.69H181.76a.71.71,0,0,1-.72-.79h0a.88.88,0,0,1,.85-.79h19.28a.72.72,0,0,1,.72.79h0A.88.88,0,0,1,201,307.69Z" transform="translate(0 -54.95)"/><path class="cls-10" d="M237.64,307.69H206.06a.71.71,0,0,1-.72-.79h0a.88.88,0,0,1,.86-.79h31.57a.71.71,0,0,1,.72.79h0A.87.87,0,0,1,237.64,307.69Z" transform="translate(0 -54.95)"/><path class="cls-10" d="M232.54,314.63H181.15a.7.7,0,0,1-.72-.78h0a.88.88,0,0,1,.86-.79h51.39a.72.72,0,0,1,.72.79h0A.88.88,0,0,1,232.54,314.63Z" transform="translate(0 -54.95)"/><path class="cls-10" d="M241,314.63h-3.39a.7.7,0,0,1-.72-.78h0a.87.87,0,0,1,.85-.79h3.4a.7.7,0,0,1,.71.79h0A.87.87,0,0,1,241,314.63Z" transform="translate(0 -54.95)"/><path class="cls-10" d="M204.53,321.58h-24a.72.72,0,0,1-.72-.79h0a.88.88,0,0,1,.86-.79h24a.71.71,0,0,1,.72.79h0A.88.88,0,0,1,204.53,321.58Z" transform="translate(0 -54.95)"/><path class="cls-10" d="M239.44,321.58H209.56a.72.72,0,0,1-.72-.79h0a.88.88,0,0,1,.86-.79h29.87a.71.71,0,0,1,.72.79h0A.88.88,0,0,1,239.44,321.58Z" transform="translate(0 -54.95)"/><path class="cls-10" d="M209.48,328.52H179.93a.7.7,0,0,1-.71-.79h0a.87.87,0,0,1,.85-.78h29.54a.7.7,0,0,1,.72.78h0A.87.87,0,0,1,209.48,328.52Z" transform="translate(0 -54.95)"/><path class="cls-10" d="M238.3,328.52H214.5a.7.7,0,0,1-.71-.79h0a.87.87,0,0,1,.85-.78h23.8a.7.7,0,0,1,.72.78h0A.88.88,0,0,1,238.3,328.52Z" transform="translate(0 -54.95)"/><path class="cls-8" d="M282.14,217.08a1,1,0,0,1-1.42.09l-40.93-39.06a1,1,0,0,1,0-1.41h0a1,1,0,0,1,1.42-.09l40.93,39.06a1,1,0,0,1,0,1.41Z" transform="translate(0 -54.95)"/><path class="cls-8" d="M236.17,217.07h0a1,1,0,0,1,.21-1.42l20.88-17.07a1,1,0,0,1,1.4.09h0a1,1,0,0,1-.21,1.41l-20.88,17.08A1,1,0,0,1,236.17,217.07Z" transform="translate(0 -54.95)"/><path class="cls-8" d="M263.15,195h0a1,1,0,0,1,.21-1.41l20.92-17.1a1,1,0,0,1,1.4.09h0a1,1,0,0,1-.21,1.41l-20.92,17.1A1,1,0,0,1,263.15,195Z" transform="translate(0 -54.95)"/><g class="cls-11"><path class="cls-10" d="M282.14,217.08a1,1,0,0,1-1.42.09l-40.93-39.06a1,1,0,0,1,0-1.41h0a1,1,0,0,1,1.42-.09l40.93,39.06a1,1,0,0,1,0,1.41Z" transform="translate(0 -54.95)"/></g><g class="cls-11"><path class="cls-10" d="M236.17,217.07h0a1,1,0,0,1,.21-1.42l20.88-17.07a1,1,0,0,1,1.4.09h0a1,1,0,0,1-.21,1.41l-20.88,17.08A1,1,0,0,1,236.17,217.07Z" transform="translate(0 -54.95)"/></g><g class="cls-11"><path class="cls-10" d="M263.15,195h0a1,1,0,0,1,.21-1.41l20.92-17.1a1,1,0,0,1,1.4.09h0a1,1,0,0,1-.21,1.41l-20.92,17.1A1,1,0,0,1,263.15,195Z" transform="translate(0 -54.95)"/></g></g><g id="Icons"><path class="cls-8" d="M165.74,114.84h-13A4.76,4.76,0,0,0,148,119.6v13a4.76,4.76,0,0,0,4.76,4.76h13a4.76,4.76,0,0,0,4.76-4.76v-13A4.76,4.76,0,0,0,165.74,114.84Zm-6.47,4.6c1.95,0,3,1.59,3,3.54s-1.05,3.54-3,3.54-3-1.58-3-3.54S157.31,119.44,159.27,119.44Zm7.81,13.27H151.45a.48.48,0,0,1-.34-.14l1-2.73a4.46,4.46,0,0,1,4.19-2.94h5.91a4.47,4.47,0,0,1,4.2,2.94l1,2.73A.46.46,0,0,1,167.08,132.71Z" transform="translate(0 -54.95)"/><path class="cls-9" d="M165.74,114.84h-13A4.76,4.76,0,0,0,148,119.6v13a4.76,4.76,0,0,0,4.76,4.76h13a4.76,4.76,0,0,0,4.76-4.76v-13A4.76,4.76,0,0,0,165.74,114.84Zm-6.47,4.6c1.95,0,3,1.59,3,3.54s-1.05,3.54-3,3.54-3-1.58-3-3.54S157.31,119.44,159.27,119.44Zm7.81,13.27H151.45a.48.48,0,0,1-.34-.14l1-2.73a4.46,4.46,0,0,1,4.19-2.94h5.91a4.47,4.47,0,0,1,4.2,2.94l1,2.73A.46.46,0,0,1,167.08,132.71Z" transform="translate(0 -54.95)"/><path class="cls-8" d="M119.66,168.12h-9.84a6.4,6.4,0,0,0-6.41,6.4v9.84a6.41,6.41,0,0,0,6.41,6.41h9.84a6.4,6.4,0,0,0,6.4-6.41v-9.84A6.39,6.39,0,0,0,119.66,168.12Zm-4.92,16.69s-4-4.39-4-6.63a4,4,0,0,1,8.09,0C118.78,180.42,114.74,184.81,114.74,184.81Z" transform="translate(0 -54.95)"/><path class="cls-8" d="M114.74,176.34a1.85,1.85,0,1,0,1.84,1.84A1.84,1.84,0,0,0,114.74,176.34Z" transform="translate(0 -54.95)"/><g class="cls-11"><path class="cls-10" d="M119.66,168.12h-9.84a6.4,6.4,0,0,0-6.41,6.4v9.84a6.41,6.41,0,0,0,6.41,6.41h9.84a6.4,6.4,0,0,0,6.4-6.41v-9.84A6.39,6.39,0,0,0,119.66,168.12Zm-4.92,16.69s-4-4.39-4-6.63a4,4,0,0,1,8.09,0C118.78,180.42,114.74,184.81,114.74,184.81Z" transform="translate(0 -54.95)"/><path class="cls-10" d="M114.74,176.34a1.85,1.85,0,1,0,1.84,1.84A1.84,1.84,0,0,0,114.74,176.34Z" transform="translate(0 -54.95)"/></g><polygon class="cls-8" points="335.7 85.28 342.29 81.02 335.7 76.75 335.7 85.28"/><path class="cls-8" d="M344.19,124.34H331.63a5.35,5.35,0,0,0-5.35,5.35v12.56a5.36,5.36,0,0,0,5.35,5.35h12.56a5.35,5.35,0,0,0,5.35-5.35V129.69A5.34,5.34,0,0,0,344.19,124.34Zm-6.28,20a8.37,8.37,0,1,1,8.37-8.36A8.36,8.36,0,0,1,337.91,144.33Z" transform="translate(0 -54.95)"/><g class="cls-11"><polygon class="cls-10" points="335.7 85.28 342.29 81.02 335.7 76.75 335.7 85.28"/><path class="cls-10" d="M344.19,124.34H331.63a5.35,5.35,0,0,0-5.35,5.35v12.56a5.36,5.36,0,0,0,5.35,5.35h12.56a5.35,5.35,0,0,0,5.35-5.35V129.69A5.34,5.34,0,0,0,344.19,124.34Zm-6.28,20a8.37,8.37,0,1,1,8.37-8.36A8.36,8.36,0,0,1,337.91,144.33Z" transform="translate(0 -54.95)"/></g></g><g id="Gears"><path class="cls-8" d="M356.52,172.51c0-.26,0-.52,0-.77l1.51-.84a9.92,9.92,0,0,0-.56-2.09l-1.72,0a8.52,8.52,0,0,0-.78-1.34l.89-1.47a10.61,10.61,0,0,0-1.53-1.54l-1.48.89a8.84,8.84,0,0,0-1.33-.77l0-1.73a10.89,10.89,0,0,0-2.09-.56l-.84,1.51c-.25,0-.51,0-.77,0s-.51,0-.77,0l-.84-1.51a11.29,11.29,0,0,0-2.09.56l0,1.73a8.37,8.37,0,0,0-1.33.77l-1.48-.89a10.19,10.19,0,0,0-1.54,1.54l.89,1.47a9.32,9.32,0,0,0-.77,1.34l-1.72,0a10.58,10.58,0,0,0-.57,2.09l1.51.84c0,.25,0,.51,0,.77s0,.52,0,.77l-1.51.84a10.4,10.4,0,0,0,.57,2.09l1.72,0a9.32,9.32,0,0,0,.77,1.34l-.89,1.48a10.61,10.61,0,0,0,1.54,1.53l1.48-.89a7.67,7.67,0,0,0,1.33.77l0,1.73a10.56,10.56,0,0,0,2.09.56l.84-1.51c.26,0,.51,0,.77,0s.52,0,.77,0l.84,1.51a10.2,10.2,0,0,0,2.09-.56l0-1.73a8.06,8.06,0,0,0,1.33-.77l1.48.89a11.06,11.06,0,0,0,1.53-1.53l-.89-1.48a8.52,8.52,0,0,0,.78-1.34l1.72,0a9.76,9.76,0,0,0,.56-2.09l-1.51-.84C356.5,173,356.52,172.77,356.52,172.51Zm-8.72,5.92a5.92,5.92,0,1,1,5.92-5.92A5.92,5.92,0,0,1,347.8,178.43Z" transform="translate(0 -54.95)"/><path class="cls-9" d="M356.52,172.51c0-.26,0-.52,0-.77l1.51-.84a9.92,9.92,0,0,0-.56-2.09l-1.72,0a8.52,8.52,0,0,0-.78-1.34l.89-1.47a10.61,10.61,0,0,0-1.53-1.54l-1.48.89a8.84,8.84,0,0,0-1.33-.77l0-1.73a10.89,10.89,0,0,0-2.09-.56l-.84,1.51c-.25,0-.51,0-.77,0s-.51,0-.77,0l-.84-1.51a11.29,11.29,0,0,0-2.09.56l0,1.73a8.37,8.37,0,0,0-1.33.77l-1.48-.89a10.19,10.19,0,0,0-1.54,1.54l.89,1.47a9.32,9.32,0,0,0-.77,1.34l-1.72,0a10.58,10.58,0,0,0-.57,2.09l1.51.84c0,.25,0,.51,0,.77s0,.52,0,.77l-1.51.84a10.4,10.4,0,0,0,.57,2.09l1.72,0a9.32,9.32,0,0,0,.77,1.34l-.89,1.48a10.61,10.61,0,0,0,1.54,1.53l1.48-.89a7.67,7.67,0,0,0,1.33.77l0,1.73a10.56,10.56,0,0,0,2.09.56l.84-1.51c.26,0,.51,0,.77,0s.52,0,.77,0l.84,1.51a10.2,10.2,0,0,0,2.09-.56l0-1.73a8.06,8.06,0,0,0,1.33-.77l1.48.89a11.06,11.06,0,0,0,1.53-1.53l-.89-1.48a8.52,8.52,0,0,0,.78-1.34l1.72,0a9.76,9.76,0,0,0,.56-2.09l-1.51-.84C356.5,173,356.52,172.77,356.52,172.51Zm-8.72,5.92a5.92,5.92,0,1,1,5.92-5.92A5.92,5.92,0,0,1,347.8,178.43Z" transform="translate(0 -54.95)"/><path class="cls-8" d="M333.73,202.24c0-.39,0-.77-.05-1.15l2.26-1.25a15.62,15.62,0,0,0-.84-3.14l-2.58.05a12.85,12.85,0,0,0-1.16-2l1.33-2.21a15.49,15.49,0,0,0-2.29-2.29l-2.21,1.32a13.65,13.65,0,0,0-2-1.15l0-2.58a15.35,15.35,0,0,0-3.13-.84l-1.25,2.26c-.38,0-.76,0-1.15,0s-.77,0-1.15,0L318.29,187a15.7,15.7,0,0,0-3.13.84l0,2.58a13.54,13.54,0,0,0-2,1.15L311,190.25a15.56,15.56,0,0,0-2.3,2.29l1.33,2.21a12.8,12.8,0,0,0-1.15,2l-2.58-.05a15,15,0,0,0-.84,3.14l2.26,1.25a11.05,11.05,0,0,0,0,2.3l-2.26,1.26a15.05,15.05,0,0,0,.84,3.13l2.58-.05a12.36,12.36,0,0,0,1.15,2l-1.33,2.21a15.56,15.56,0,0,0,2.3,2.29l2.21-1.32a12.7,12.7,0,0,0,2,1.15l0,2.58a15.05,15.05,0,0,0,3.13.84l1.26-2.26a11.05,11.05,0,0,0,2.3,0l1.25,2.26a14.73,14.73,0,0,0,3.13-.84l0-2.58a12.8,12.8,0,0,0,2-1.15l2.21,1.32a15.49,15.49,0,0,0,2.29-2.29l-1.33-2.21a12.41,12.41,0,0,0,1.16-2l2.58.05a15.7,15.7,0,0,0,.84-3.13l-2.26-1.26C333.71,203,333.73,202.63,333.73,202.24Zm-13,5.14a5.14,5.14,0,1,1,5.14-5.14A5.14,5.14,0,0,1,320.7,207.38Z" transform="translate(0 -54.95)"/><path class="cls-9" d="M333.73,202.24c0-.39,0-.77-.05-1.15l2.26-1.25a15.62,15.62,0,0,0-.84-3.14l-2.58.05a12.85,12.85,0,0,0-1.16-2l1.33-2.21a15.49,15.49,0,0,0-2.29-2.29l-2.21,1.32a13.65,13.65,0,0,0-2-1.15l0-2.58a15.35,15.35,0,0,0-3.13-.84l-1.25,2.26c-.38,0-.76,0-1.15,0s-.77,0-1.15,0L318.29,187a15.7,15.7,0,0,0-3.13.84l0,2.58a13.54,13.54,0,0,0-2,1.15L311,190.25a15.56,15.56,0,0,0-2.3,2.29l1.33,2.21a12.8,12.8,0,0,0-1.15,2l-2.58-.05a15,15,0,0,0-.84,3.14l2.26,1.25a11.05,11.05,0,0,0,0,2.3l-2.26,1.26a15.05,15.05,0,0,0,.84,3.13l2.58-.05a12.36,12.36,0,0,0,1.15,2l-1.33,2.21a15.56,15.56,0,0,0,2.3,2.29l2.21-1.32a12.7,12.7,0,0,0,2,1.15l0,2.58a15.05,15.05,0,0,0,3.13.84l1.26-2.26a11.05,11.05,0,0,0,2.3,0l1.25,2.26a14.73,14.73,0,0,0,3.13-.84l0-2.58a12.8,12.8,0,0,0,2-1.15l2.21,1.32a15.49,15.49,0,0,0,2.29-2.29l-1.33-2.21a12.41,12.41,0,0,0,1.16-2l2.58.05a15.7,15.7,0,0,0,.84-3.13l-2.26-1.26C333.71,203,333.73,202.63,333.73,202.24Zm-13,5.14a5.14,5.14,0,1,1,5.14-5.14A5.14,5.14,0,0,1,320.7,207.38Z" transform="translate(0 -54.95)"/></g><g id="Speech_bubbles" data-name="Speech bubbles"><path class="cls-8" d="M297,144.26v5.24l-5,2.63a1.22,1.22,0,0,0,0,2.15l5,2.63v5.24a2.11,2.11,0,0,0,2.11,2.11H317a2.12,2.12,0,0,0,2.12-2.11V144.26a2.12,2.12,0,0,0-2.12-2.12H299.08A2.11,2.11,0,0,0,297,144.26Z" transform="translate(0 -54.95)"/><g class="cls-12"><path class="cls-10" d="M303.12,149.72h10.17a1.25,1.25,0,0,0,0-2.5H303.12a1.25,1.25,0,0,0,0,2.5Z" transform="translate(0 -54.95)"/><path class="cls-10" d="M313.29,152H303.12a1.25,1.25,0,0,0,0,2.5h10.17a1.25,1.25,0,0,0,0-2.5Z" transform="translate(0 -54.95)"/><path class="cls-10" d="M313.29,156.69H303.12a1.25,1.25,0,0,0,0,2.5h10.17a1.25,1.25,0,0,0,0-2.5Z" transform="translate(0 -54.95)"/></g><path class="cls-8" d="M195.9,136h4.27l2.2,4.17a1.7,1.7,0,0,0,3,0l2.2-4.17h4.27a3.08,3.08,0,0,0,3.08-3.09V117a3.08,3.08,0,0,0-3.08-3.08H195.9a3.07,3.07,0,0,0-3.08,3.08V133A3.08,3.08,0,0,0,195.9,136Z" transform="translate(0 -54.95)"/><polygon class="cls-13" points="203.88 63.73 198.96 66.62 198.96 75.03 202.62 75.03 202.62 69.39 205.15 69.39 205.15 75.03 208.81 75.03 208.81 66.62 203.88 63.73"/><path class="cls-8" d="M243.8,364.79H240l-2.45-4.66a1.42,1.42,0,0,0-2.5,0l-2.45,4.66H228.7a3.51,3.51,0,0,0-3.51,3.51v15.1a3.51,3.51,0,0,0,3.51,3.51h15.1a3.51,3.51,0,0,0,3.51-3.51V368.3A3.51,3.51,0,0,0,243.8,364.79Z" transform="translate(0 -54.95)"/><path class="cls-13" d="M238.39,370.56a5.46,5.46,0,1,0-.77,8.36,1.26,1.26,0,0,0,.33.66l3.4,3.39a1.22,1.22,0,0,0,1.73-1.73l-3.39-3.39a1.23,1.23,0,0,0-.67-.34A5.48,5.48,0,0,0,238.39,370.56Zm-1.16,6.57a3.83,3.83,0,1,1,0-5.42A3.83,3.83,0,0,1,237.23,377.13Z" transform="translate(0 -54.95)"/></g><g id="Character_2" data-name="Character 2"><path class="cls-14" d="M405.29,264.23s-8.15,20.2-16.13,22.38-20,.41-20,.41l-3.72,1-3.65-.54h-.13l-4.11-.1a.78.78,0,0,1-.7-1.23l1.47-2a1,1,0,0,1,.49-.35l3.92-1.26a1.08,1.08,0,0,1,.47,0l6,.95s16.65-2.73,18.35-4.27,6.71-17.69,6.71-17.69Z" transform="translate(0 -54.95)"/><path class="cls-15" d="M369.57,283.36l-.39.06-6-.95a1.08,1.08,0,0,0-.47,0l-3.92,1.26a1,1,0,0,0-.49.35l-1.47,2a.78.78,0,0,0,.7,1.23l4.11.1h.13l2.45.36A15.7,15.7,0,0,0,369.57,283.36Z" transform="translate(0 -54.95)"/><path class="cls-8" d="M410.21,244.22c-5.92-1.94-14.25,2.51-17.44,21.15L405.06,269S418.67,247,410.21,244.22Z" transform="translate(0 -54.95)"/><path class="cls-16" d="M375.77,219.86c0,.62.33,1.11.73,1.11s.75-.53.72-1.13-.33-1.1-.73-1.09S375.77,219.25,375.77,219.86Z" transform="translate(0 -54.95)"/><path class="cls-17" d="M378.19,220.47l-2.91,4.81s1,1.14,3.19.3Z" transform="translate(0 -54.95)"/><path class="cls-16" d="M378.74,216a.31.31,0,0,1-.29.1,2.51,2.51,0,0,0-2.19.69.33.33,0,0,1-.45,0,.34.34,0,0,1,0-.46,3.11,3.11,0,0,1,2.76-.89.32.32,0,0,1,.28.36h0A.38.38,0,0,1,378.74,216Z" transform="translate(0 -54.95)"/><path class="cls-14" d="M399.3,215.5c.45,8.13.82,11.57-2.77,16.19-5.73,4.95-15.49,5.74-18.37-2.09-2.59-7-2.89-19.13,4.63-23.32a11.11,11.11,0,0,1,15.12,4.31A11.29,11.29,0,0,1,399.3,215.5Z" transform="translate(0 -54.95)"/><polygon class="cls-14" points="387.97 178.34 390.03 190.38 400.07 188.06 396.56 175.77 387.97 178.34"/><path class="cls-16" d="M380.74,216.1c.51-5.28-1.31.82-3.75-6.15s9.09-12.63,10.93-11.33.79,3.29,6.89,4.42a6.93,6.93,0,0,1,5.84,7.05s3.51,1.62,2.26,9.16a30.9,30.9,0,0,1-6,13.25s-2.31-2.38-6-.19a11.85,11.85,0,0,1-3.57-3.64c-1.64-2.46-2.15-4.8-4.4-5C378.24,223.24,380.57,217.84,380.74,216.1Z" transform="translate(0 -54.95)"/><path class="cls-16" d="M400,211s5-3.06,2.78-6.27S401.63,208.27,400,211Z" transform="translate(0 -54.95)"/><path class="cls-18" d="M382.17,219.17a6.28,6.28,0,0,0-1.59,4.53c.14,2.2,2.3,2.59,4,1.39s3.31-3.54,2.33-5.47A2.83,2.83,0,0,0,382.17,219.17Z" transform="translate(0 -54.95)"/><path class="cls-15" d="M388.16,234.43l.82,4.78a9,9,0,0,1,2.26-6.53A4.05,4.05,0,0,0,388.16,234.43Z" transform="translate(0 -54.95)"/><rect class="cls-8" x="314.7" y="210.56" width="2.87" height="16.93"/><rect class="cls-9" x="314.7" y="210.56" width="2.87" height="16.93"/><path class="cls-8" d="M297.85,231.89H290.7a4.85,4.85,0,0,0-4.85,4.85v33.13a4.85,4.85,0,0,0,4.85,4.85h7.15Z" transform="translate(0 -54.95)"/><rect class="cls-8" x="288.35" y="176.94" width="58.08" height="42.82" rx="4.85"/><rect class="cls-19" x="288.35" y="176.94" width="58.08" height="42.82" rx="4.85"/><rect class="cls-16" x="290.35" y="178.94" width="54.08" height="38.82" rx="2.85"/><path class="cls-8" d="M305.69,289.54a10.45,10.45,0,0,1,20.89,0Z" transform="translate(0 -54.95)"/><polygon class="cls-8" points="330.34 231.02 309.45 231.02 309.45 234.42 351.23 234.42 351.23 233.02 330.34 231.02"/><polygon class="cls-20" points="330.34 231.02 309.45 231.02 309.45 234.42 351.23 234.42 351.23 233.02 330.34 231.02"/><polygon class="cls-8" points="330.34 234.42 309.45 234.42 309.45 231.02 330.34 233.02 330.34 234.42"/><polygon class="cls-21" points="330.34 234.42 309.45 234.42 309.45 231.02 330.34 233.02 330.34 234.42"/><path class="cls-16" d="M376.4,406.08H333.31a6.54,6.54,0,0,1-6.55-6.54V300.46a6.54,6.54,0,0,1,6.55-6.54H376.4a1.75,1.75,0,0,1,1.75,1.75h0a1.75,1.75,0,0,1-1.75,1.75H333.31a3,3,0,0,0-3.05,3v99.08a3,3,0,0,0,3.05,3H376.4a1.75,1.75,0,0,1,1.75,1.75h0A1.75,1.75,0,0,1,376.4,406.08Z" transform="translate(0 -54.95)"/><g class="cls-22"><path class="cls-10" d="M376.4,406.08H333.31a6.54,6.54,0,0,1-6.55-6.54V300.46a6.54,6.54,0,0,1,6.55-6.54H376.4a1.75,1.75,0,0,1,1.75,1.75h0a1.75,1.75,0,0,1-1.75,1.75H333.31a3,3,0,0,0-3.05,3v99.08a3,3,0,0,0,3.05,3H376.4a1.75,1.75,0,0,1,1.75,1.75h0A1.75,1.75,0,0,1,376.4,406.08Z" transform="translate(0 -54.95)"/></g><rect class="cls-8" x="271.95" y="234.42" width="61.19" height="5.13"/><rect class="cls-23" x="271.95" y="234.42" width="61.19" height="5.13"/><rect class="cls-8" x="330.34" y="234.42" width="52.19" height="5.13"/><rect class="cls-19" x="330.34" y="234.42" width="52.19" height="5.13"/><polygon class="cls-14" points="364.23 314.78 367.12 343.99 360.2 343.99 353.27 315.54 364.23 314.78"/><path class="cls-16" d="M359.55,397l8.83.15a.71.71,0,0,1,.68.57l1.48,7.21a1.19,1.19,0,0,1-.91,1.4l-.25,0c-3.19-.11-6-.33-10-.4-4.67-.08-3.5.5-9,.49-3.31,0-3.85-3.79-2.45-3.95,6.45-.7,7.15-2.63,9.67-4.89A2.86,2.86,0,0,1,359.55,397Z" transform="translate(0 -54.95)"/><polygon class="cls-15" points="366.37 336.37 364.23 314.78 353.27 315.54 358.34 336.37 366.37 336.37"/><path class="cls-16" d="M411.61,302.36l-28.38,1S345,316.73,344,327c-1.1,10.58,11.74,59.19,11.74,59.19h11.41s-3.15-35.67-4.35-46.59,39.79-7.31,46.91-16.62C416.22,314.44,411.61,302.36,411.61,302.36Z" transform="translate(0 -54.95)"/><path class="cls-24" d="M411.61,302.36l-28.38,1S345,316.73,344,327c-1.1,10.58,11.74,59.19,11.74,59.19h11.41s-3.15-35.67-4.35-46.59,39.79-7.31,46.91-16.62C416.22,314.44,411.61,302.36,411.61,302.36Z" transform="translate(0 -54.95)"/><polygon class="cls-8" points="369.05 329.64 369.3 333.67 355.2 333.67 353.82 329.64 369.05 329.64"/><polygon class="cls-14" points="337.82 316.17 338.58 343.99 331.78 343.99 327.75 316.17 337.82 316.17"/><path class="cls-16" d="M330.84,397l8.83.15a.71.71,0,0,1,.68.57l1.48,7.21a1.19,1.19,0,0,1-.91,1.4l-.25,0c-3.19-.11-6-.33-10-.4-4.68-.08-3.5.5-9,.49-3.31,0-3.85-3.79-2.45-3.95,6.45-.7,7.15-2.63,9.67-4.89A2.84,2.84,0,0,1,330.84,397Z" transform="translate(0 -54.95)"/><path class="cls-15" d="M338.37,391.3l-.55-20.18H327.75l2.93,20.2C332.87,391.33,335.88,391.31,338.37,391.3Z" transform="translate(0 -54.95)"/><path class="cls-16" d="M399.27,304.71s2.36,21.58-19.59,22.59-39.09,3.52-39.59,11.33,0,47.6,0,47.6H328.16s-4.64-25.16-6.45-40.76c-1.76-15.15-5-26.14,10.57-31.27,16.53-5.46,45.91-10.5,45.91-10.5l21.16-1.34Z" transform="translate(0 -54.95)"/><polygon class="cls-8" points="341.85 329.64 341.1 333.67 328 333.67 326.62 329.64 341.85 329.64"/><path class="cls-8" d="M404,242.8s0-4.86-9.83-4.3c-10.44.6-8.47,5.26-8.47,5.26Z" transform="translate(0 -54.95)"/><path class="cls-25" d="M404,242.8s0-4.86-9.83-4.3c-10.44.6-8.47,5.26-8.47,5.26Z" transform="translate(0 -54.95)"/><path class="cls-8" d="M413.16,264.6c-.66,9.61-.43,38.52-.43,38.52s-21,1.38-37.48.84l-1.91-55.61a4.89,4.89,0,0,1,3.14-4.53c4.66-1.81,15.6-3.86,32.71-1.61C415.09,243,413.94,253.24,413.16,264.6Z" transform="translate(0 -54.95)"/><path class="cls-14" d="M376.71,264.23s-8.16,20.2-16.13,22.38-20,.41-20,.41l-3.72,1-3.64-.54h-.13l-4.12-.1a.78.78,0,0,1-.7-1.23l1.48-2a1,1,0,0,1,.49-.35l3.91-1.26a1.12,1.12,0,0,1,.48,0l6,.95s16.65-2.73,18.34-4.27,6.72-17.69,6.72-17.69Z" transform="translate(0 -54.95)"/><path class="cls-15" d="M376.5,254.83s-1.27,1.51-2.81,3.69l.55,16.1c6.13-2.71,8.56-18.49,8.56-18.49l-4-2.82Z" transform="translate(0 -54.95)"/><path class="cls-8" d="M381.63,244.22c-5.92-1.94-14.26,2.51-17.45,21.15l12.3,3.59S390.09,247,381.63,244.22Z" transform="translate(0 -54.95)"/><rect class="cls-16" x="380.21" y="282.82" width="9.25" height="27.11"/><rect class="cls-21" x="380.21" y="282.82" width="9.25" height="27.11"/><polygon class="cls-16" points="390.89 334.49 390.89 300.04 378.77 300.04 378.77 334.49 351.18 338.32 351.18 342.15 384.83 339.28 418.48 342.15 418.48 338.32 390.89 334.49"/><circle class="cls-8" cx="350.78" cy="347.89" r="3.65"/><circle class="cls-8" cx="418.48" cy="347.89" r="3.65"/><circle class="cls-8" cx="384.83" cy="347.89" r="3.65"/><rect class="cls-25" x="380.21" y="282.82" width="9.25" height="6.7"/><path class="cls-8" d="M421.4,276.32H391.26a9.52,9.52,0,0,0-9.47,8.63l-2.54,27.23a12.55,12.55,0,0,1-11.85,11.36L338.31,325a6.65,6.65,0,0,0-6.31,6.64v.61a5.51,5.51,0,0,0,5.51,5.51H426.1l4.77-51A9.52,9.52,0,0,0,421.4,276.32Z" transform="translate(0 -54.95)"/><path class="cls-26" d="M421.4,276.32H391.26a9.52,9.52,0,0,0-9.47,8.63l-2.54,27.23a12.55,12.55,0,0,1-11.85,11.36L338.31,325a6.65,6.65,0,0,0-6.31,6.64v.61a5.51,5.51,0,0,0,5.51,5.51H426.1l4.77-51A9.52,9.52,0,0,0,421.4,276.32Z" transform="translate(0 -54.95)"/><path class="cls-16" d="M352.22,252.09h4.15a0,0,0,0,1,0,0V273.8a2,2,0,0,1-2,2h-.15a2,2,0,0,1-2-2V252.09a0,0,0,0,1,0,0Z"/><path class="cls-23" d="M352.22,252.09h4.15a0,0,0,0,1,0,0V273.8a2,2,0,0,1-2,2h-.15a2,2,0,0,1-2-2V252.09a0,0,0,0,1,0,0Z"/><path class="cls-8" d="M372.23,300.77H363v7.65h9.25a3.83,3.83,0,1,0,0-7.65Z" transform="translate(0 -54.95)"/><path class="cls-19" d="M372.23,300.77H363v7.65h9.25a3.83,3.83,0,1,0,0-7.65Z" transform="translate(0 -54.95)"/><rect class="cls-8" x="332.52" y="245.82" width="39.71" height="7.66" rx="3.69"/><rect class="cls-26" x="332.52" y="245.82" width="39.71" height="7.66" rx="3.69"/><path class="cls-8" d="M428.18,337.77H383.87L388.81,285a9.52,9.52,0,0,1,9.47-8.63h30.14a9.52,9.52,0,0,1,9.47,10.4l-4.31,46.14A5.43,5.43,0,0,1,428.18,337.77Z" transform="translate(0 -54.95)"/><path class="cls-19" d="M428.18,337.77H383.87L388.81,285a9.52,9.52,0,0,1,9.47-8.63h30.14a9.52,9.52,0,0,1,9.47,10.4l-4.31,46.14A5.43,5.43,0,0,1,428.18,337.77Z" transform="translate(0 -54.95)"/><path class="cls-16" d="M324.67,406.08H281.58a6.54,6.54,0,0,1-6.55-6.54V300.46a6.54,6.54,0,0,1,6.55-6.54h43.09a1.75,1.75,0,0,1,1.75,1.75h0a1.75,1.75,0,0,1-1.75,1.75H281.58a3,3,0,0,0-3.05,3v99.08a3,3,0,0,0,3.05,3h43.09a1.75,1.75,0,0,1,1.75,1.75h0A1.75,1.75,0,0,1,324.67,406.08Z" transform="translate(0 -54.95)"/><g class="cls-22"><path class="cls-10" d="M324.67,406.08H281.58a6.54,6.54,0,0,1-6.55-6.54V300.46a6.54,6.54,0,0,1,6.55-6.54h43.09a1.75,1.75,0,0,1,1.75,1.75h0a1.75,1.75,0,0,1-1.75,1.75H281.58a3,3,0,0,0-3.05,3v99.08a3,3,0,0,0,3.05,3h43.09a1.75,1.75,0,0,1,1.75,1.75h0A1.75,1.75,0,0,1,324.67,406.08Z" transform="translate(0 -54.95)"/></g><path class="cls-10" d="M296.19,241.79l-3-2a.54.54,0,0,1,0-.91l3-2a.5.5,0,0,1,.69.14h0a.5.5,0,0,1-.14.68l-2.49,1.65,2.49,1.65a.5.5,0,0,1,.14.68h0A.51.51,0,0,1,296.19,241.79Z" transform="translate(0 -54.95)"/><path class="cls-10" d="M302.83,241.65h0A.49.49,0,0,1,303,241l2.49-1.65L303,237.67a.49.49,0,0,1-.13-.68h0a.49.49,0,0,1,.68-.14l3,2a.54.54,0,0,1,0,.91l-3,2A.5.5,0,0,1,302.83,241.65Z" transform="translate(0 -54.95)"/><path class="cls-10" d="M298.72,243h0a.49.49,0,0,1-.32-.62l2.07-6.54a.48.48,0,0,1,.61-.32h0a.48.48,0,0,1,.32.61l-2.06,6.55A.49.49,0,0,1,298.72,243Z" transform="translate(0 -54.95)"/><path class="cls-10" d="M315.7,248H293.43a.51.51,0,0,1-.51-.52h0a.51.51,0,0,1,.51-.52H315.7a.52.52,0,0,1,.52.52h0A.52.52,0,0,1,315.7,248Z" transform="translate(0 -54.95)"/><path class="cls-10" d="M341.28,248H319a.52.52,0,0,1-.52-.52h0A.52.52,0,0,1,319,247h22.26a.52.52,0,0,1,.52.52h0A.52.52,0,0,1,341.28,248Z" transform="translate(0 -54.95)"/><path class="cls-10" d="M306.16,252.58H293.43a.51.51,0,0,1-.51-.52h0a.51.51,0,0,1,.51-.51h12.73a.52.52,0,0,1,.52.51h0A.52.52,0,0,1,306.16,252.58Z" transform="translate(0 -54.95)"/><path class="cls-10" d="M330.32,252.58H309.47a.51.51,0,0,1-.51-.52h0a.51.51,0,0,1,.51-.51h20.85a.51.51,0,0,1,.51.51h0A.51.51,0,0,1,330.32,252.58Z" transform="translate(0 -54.95)"/><path class="cls-10" d="M327.35,257.17H293.43a.52.52,0,0,1-.51-.52h0a.51.51,0,0,1,.51-.52h33.92a.52.52,0,0,1,.52.52h0A.52.52,0,0,1,327.35,257.17Z" transform="translate(0 -54.95)"/><path class="cls-10" d="M337.75,257.17h-7.08a.52.52,0,0,1-.52-.52h0a.52.52,0,0,1,.52-.52h7.08a.52.52,0,0,1,.52.52h0A.52.52,0,0,1,337.75,257.17Z" transform="translate(0 -54.95)"/><path class="cls-10" d="M309.27,261.75H293.43a.51.51,0,0,1-.51-.52h0a.51.51,0,0,1,.51-.52h15.84a.52.52,0,0,1,.52.52h0A.52.52,0,0,1,309.27,261.75Z" transform="translate(0 -54.95)"/><path class="cls-10" d="M332.3,261.75H312.59a.52.52,0,0,1-.52-.52h0a.52.52,0,0,1,.52-.52H332.3a.52.52,0,0,1,.52.52h0A.52.52,0,0,1,332.3,261.75Z" transform="translate(0 -54.95)"/><path class="cls-10" d="M315.7,266.33H293.43a.51.51,0,0,1-.51-.52h0a.51.51,0,0,1,.51-.51H315.7a.51.51,0,0,1,.52.51h0A.52.52,0,0,1,315.7,266.33Z" transform="translate(0 -54.95)"/><path class="cls-10" d="M334.73,266.33H319a.52.52,0,0,1-.52-.52h0a.51.51,0,0,1,.52-.51h15.71a.51.51,0,0,1,.51.51h0A.51.51,0,0,1,334.73,266.33Z" transform="translate(0 -54.95)"/></g><g id="Character_1" data-name="Character 1"><path class="cls-27" d="M141.47,176.82c.41,4.71-.61,13.24-4.16,16,5.79,2.09,11.93,5.69,15.85,10.44,3.89-5.66-.53-8.89-.53-8.89-5-1.78-4.47-5.57-3.18-9.06Z" transform="translate(0 -54.95)"/><path class="cls-16" d="M160.4,172.76c-.06.59.22,1.1.61,1.14s.74-.42.8-1-.22-1.1-.61-1.14S160.47,172.17,160.4,172.76Z" transform="translate(0 -54.95)"/><path class="cls-16" d="M161.05,171.77l1.45-.28S161.67,172.56,161.05,171.77Z" transform="translate(0 -54.95)"/><path class="cls-28" d="M160.6,173.39a16.36,16.36,0,0,0,1.77,4,2.59,2.59,0,0,1-2.16.2Z" transform="translate(0 -54.95)"/><path class="cls-16" d="M162.08,169.65a.41.41,0,0,0,.24-.13.36.36,0,0,0,0-.49,3.48,3.48,0,0,0-3.09-.83.37.37,0,0,0-.11.49.33.33,0,0,0,.3.16,2.83,2.83,0,0,1,2.44.69A.36.36,0,0,0,162.08,169.65Z" transform="translate(0 -54.95)"/><path class="cls-27" d="M141,169c-.23,7.31-.48,10.42,2.78,14.5,4.91,6.13,13.8,4.79,16.18-2.33,2.14-6.41,2.16-17.33-4.57-20.87S141.21,161.67,141,169Z" transform="translate(0 -54.95)"/><path class="cls-16" d="M141.32,182.81c-7.19-1.23-5.13-5.76-5.13-5.76-7.08-1.43-1.61-4.89-1.61-4.89-5.89-2.54,0-4.82,0-4.82C128.9,162.63,137,161,137,161c-2-7.35,5-4.33,5-4.33,3.8-6.32,7.08-.29,7.08-.29,6.66-9,8.28-1.41,8.28-1.41,6.81-1.79,4.2,5.37,4.2,5.37,5.6,1.5,1.2,4.34,1.2,4.34,2.16,2.73-5.65,3.2-5.65,3.2s3.72,6,0,7.65l-9.46,7.25S143.28,181,141.32,182.81Z" transform="translate(0 -54.95)"/><path class="cls-8" d="M148.39,176.91s5-12,1.09-22.24l3.3-1.13S157.09,168.43,148.39,176.91Z" transform="translate(0 -54.95)"/><path class="cls-27" d="M153.38,175.59c.82,1.72,1.14,2.47,2.32,3a2.14,2.14,0,0,0,3.14-2.38c-.31-1.72-1.63-4.25-3.46-4.3A2.39,2.39,0,0,0,153.38,175.59Z" transform="translate(0 -54.95)"/><path class="cls-27" d="M148.21,200.57s6.77,5,9.52,7l19.59-9.24h0a5.41,5.41,0,0,1,3.3-5.12l1.4-.58,2.95-1.32a3.42,3.42,0,0,1,3.41.36h0a3.43,3.43,0,0,1,1.27,3.74h0a8.47,8.47,0,0,1-6,5.82l-2.86.75S164,214.7,158,215s-14.79-5.59-14.79-5.59Z" transform="translate(0 -54.95)"/><path class="cls-16" d="M131.93,192.14c5.17,0,10.95,3.22,20,9.12a24.85,24.85,0,0,1-7,11.08s-5-1.34-11.64-7.59C125.29,197.18,128.76,192.15,131.93,192.14Z" transform="translate(0 -54.95)"/><path class="cls-8" d="M230.13,207.12h-49a2.91,2.91,0,0,1-2.94-3.22l3.69-42.18a3.58,3.58,0,0,1,3.5-3.22h49a2.9,2.9,0,0,1,2.93,3.22l-3.69,42.18A3.58,3.58,0,0,1,230.13,207.12Z" transform="translate(0 -54.95)"/><path class="cls-29" d="M230.13,207.12h-49a2.91,2.91,0,0,1-2.94-3.22l3.69-42.18a3.58,3.58,0,0,1,3.5-3.22h49a2.9,2.9,0,0,1,2.93,3.22l-3.69,42.18A3.58,3.58,0,0,1,230.13,207.12Z" transform="translate(0 -54.95)"/><path class="cls-9" d="M230.31,205.12a1.35,1.35,0,0,0,1.32-1.22l3.69-42.18a1.1,1.1,0,0,0-1.11-1.22h-49a1.36,1.36,0,0,0-1.33,1.22L180.2,203.9a1.1,1.1,0,0,0,1.11,1.22Z" transform="translate(0 -54.95)"/><path class="cls-8" d="M196.26,180.32l-16,23.16,0,.42a1.1,1.1,0,0,0,1.11,1.22h27.76Z" transform="translate(0 -54.95)"/><path class="cls-26" d="M196.26,180.32l-16,23.16,0,.42a1.1,1.1,0,0,0,1.11,1.22h27.76Z" transform="translate(0 -54.95)"/><path class="cls-8" d="M231.77,202.29l-13.41-25.47-19.86,28.3h31.81a1.35,1.35,0,0,0,1.32-1.22Z" transform="translate(0 -54.95)"/><path class="cls-8" d="M213.18,172.32a5,5,0,0,1-4.89,4.5,4.06,4.06,0,0,1-4.11-4.5,5,5,0,0,1,4.89-4.51A4.06,4.06,0,0,1,213.18,172.32Z" transform="translate(0 -54.95)"/><path class="cls-29" d="M213.18,172.32a5,5,0,0,1-4.89,4.5,4.06,4.06,0,0,1-4.11-4.5,5,5,0,0,1,4.89-4.51A4.06,4.06,0,0,1,213.18,172.32Z" transform="translate(0 -54.95)"/><polygon class="cls-27" points="90.9 322.42 85.92 337.18 93.55 340.29 99.52 326.67 90.9 322.42"/><path class="cls-8" d="M96.29,394.88a.25.25,0,0,1-.12-.23.21.21,0,0,1,.17-.18c.16,0,3.76-.84,5.1,0a1.14,1.14,0,0,1,.51.69.82.82,0,0,1-.26.91c-.51.36-1.7.21-2.79-.13A16.45,16.45,0,0,1,96.29,394.88Zm.76-.07c1.57.7,3.79,1.37,4.37.93.08-.06.18-.16.1-.47a.57.57,0,0,0-.32-.42,1.46,1.46,0,0,0-.38-.17A10,10,0,0,0,97.05,394.81Z" transform="translate(0 -54.95)"/><path class="cls-8" d="M96.18,394.83a.22.22,0,0,1,0-.22c0-.1,1-2.4,2.41-3a1.65,1.65,0,0,1,1.27,0c.55.23.64.58.59.82-.12,1.05-2.82,2.3-4,2.44a.1.1,0,0,1-.09,0A.19.19,0,0,1,96.18,394.83ZM99.57,392a1.16,1.16,0,0,0-.8,0,5.1,5.1,0,0,0-2,2.33c1.29-.31,3.13-1.37,3.26-2,0-.06,0-.22-.34-.36l-.12,0Z" transform="translate(0 -54.95)"/><path class="cls-16" d="M95.77,393.37l-9.58-3a.81.81,0,0,0-.94.37L81.11,398a1.34,1.34,0,0,0,.49,1.84,1.23,1.23,0,0,0,.26.12c3.47,1,6.6,1.76,10.9,3.1,5.08,1.56,3.6,1.77,9.54,3.7,3.58,1.16,5.5-2.73,4-3.4-6.71-3-6.78-5.36-8.7-8.69A3.22,3.22,0,0,0,95.77,393.37Z" transform="translate(0 -54.95)"/><polygon class="cls-30" points="88.51 329.5 96.51 333.54 99.52 326.67 90.9 322.42 88.51 329.5"/><path class="cls-8" d="M124.72,240.85s-10.75,8.21-8.45,33.93c.22,2.38,1,4.87,1,7.59,0,1.81-.5,3.08-1.09,7.15-.86,5.92-2.44,28-4.11,30.87s-2.35,2.36-7,10.28c-5,8.52-11.5,23.46-16.53,48.78a28.2,28.2,0,0,0,11.24,4.71s27.47-43.32,33.31-59.45c5.23-14.43,11.46-60.48,11.46-60.48l.5-20Z" transform="translate(0 -54.95)"/><path class="cls-15" d="M136.48,274.78H128.7s-2.56,24.48,5.9,44.9c.88-3.28,1.77-7.21,2.64-11.46l3.37-21.56c-.48-3.64-.85-6.42-.91-6.6C139.53,279.49,136.48,274.78,136.48,274.78Z" transform="translate(0 -54.95)"/><polygon class="cls-27" points="135.2 328.36 135.25 344.05 144.1 343.45 145.46 328.36 135.2 328.36"/><path class="cls-8" d="M145.12,398.14a.21.21,0,0,1-.18-.17.21.21,0,0,1,.1-.23c.14-.08,3.27-2,4.82-1.66a1.17,1.17,0,0,1,.71.48.84.84,0,0,1,.05.95,4,4,0,0,1-2.68.79A15.65,15.65,0,0,1,145.12,398.14Zm.7-.31c1.71.15,4,.05,4.43-.56.06-.08.11-.21-.06-.48a.6.6,0,0,0-.44-.29,1.39,1.39,0,0,0-.41,0A9.7,9.7,0,0,0,145.82,397.83Z" transform="translate(0 -54.95)"/><path class="cls-8" d="M145,398.14a.24.24,0,0,1-.11-.2c0-.11.17-2.6,1.3-3.6a1.61,1.61,0,0,1,1.2-.42c.6,0,.8.34.83.59.23,1-1.9,3.09-3,3.62a.14.14,0,0,1-.09,0A.19.19,0,0,1,145,398.14Zm2.26-3.8a1.12,1.12,0,0,0-.74.3,5.08,5.08,0,0,0-1.12,2.86c1.11-.71,2.5-2.32,2.42-2.94,0-.06-.05-.22-.44-.24l-.12,0Z" transform="translate(0 -54.95)"/><path class="cls-16" d="M144.14,396.89l-10,.36a.81.81,0,0,0-.76.66l-1.52,8.22a1.34,1.34,0,0,0,1.06,1.57,1.43,1.43,0,0,0,.29,0c3.61-.2,6.81-.51,11.31-.66,5.31-.19,4,.49,10.23.36,3.77-.09,4.3-4.39,2.7-4.54-7.33-.66-8.17-2.84-11.08-5.35A3.22,3.22,0,0,0,144.14,396.89Z" transform="translate(0 -54.95)"/><polygon class="cls-30" points="135.23 336.47 144.75 336.27 145.46 328.36 135.2 328.36 135.23 336.47"/><path class="cls-8" d="M130.71,238s-10.73,14.21-2.78,42l9,40.59s-8.54,18.46-4,67.16a41,41,0,0,0,13.24-.3s10-51.43,11.51-68.8c1.67-19.14.67-76.83.67-76.83Z" transform="translate(0 -54.95)"/><path class="cls-16" d="M137.19,191.94s-1.66-7.1,9-4,9.76,9.17,9.76,9.17Z" transform="translate(0 -54.95)"/><path class="cls-31" d="M137.19,191.94s-1.66-7.1,9-4,9.76,9.17,9.76,9.17Z" transform="translate(0 -54.95)"/><path class="cls-16" d="M163.63,209.7c0,2.49-1,6.09-2,10.12-.46,1.91-.88,3.9-1.16,5.92-1.51,11-2,22.59-2,22.59a43.86,43.86,0,0,1-34.34-6.81s4.19-3.55,3.33-28.14c-.39-11.08-4.39-24.25,13.92-22.18,15.46,1.75,20.66,6.55,21.91,14.06,0,.09,0,.19,0,.29l.09.7A29.3,29.3,0,0,1,163.63,209.7Z" transform="translate(0 -54.95)"/><path class="cls-31" d="M163.63,209.7c0,2.49-1,6.09-2,10.12-4.18-5-8.37-14.45-8.37-14.45l3.45-5.08,6.08,2.83a18,18,0,0,1,.5,2.14c0,.09,0,.19,0,.29l.09.7A29.3,29.3,0,0,1,163.63,209.7Z" transform="translate(0 -54.95)"/><path class="cls-27" d="M170,205.36s6,5.92,8.37,8.3l20.74-6.22h0a5.42,5.42,0,0,1,4-4.56l1.46-.38,3.12-.86a3.45,3.45,0,0,1,3.32.87h0a3.42,3.42,0,0,1,.7,3.88h0a8.5,8.5,0,0,1-6.8,4.87l-2.94.31s-18.51,10.11-24.47,9.55-13.79-7.73-13.79-7.73Z" transform="translate(0 -54.95)"/><path class="cls-16" d="M155.1,194.59c5.12.75,10.35,4.82,18.47,12a24.87,24.87,0,0,1-8.59,9.92s-4.73-2.07-10.37-9.24C147.79,198.59,152,194.13,155.1,194.59Z" transform="translate(0 -54.95)"/></g></svg>